<?xml version="1.0" encoding="UTF-8" standalone="no"?><!-- Generator: Gravit.io --><svg xmlns="http://www.w3.org/2000/svg" xmlns:xlink="http://www.w3.org/1999/xlink" style="isolation:isolate" viewBox="0 0 853.3 853.3" width="853.3pt" height="853.3pt"><defs><clipPath id="_clipPath_LlYpk4HvD4RmDgE42S8v6A2YNFFKwuNa"><rect width="853.3" height="853.3"/></clipPath></defs><g clip-path="url(#_clipPath_LlYpk4HvD4RmDgE42S8v6A2YNFFKwuNa)"><g><g><g><path d=" M 111.386 308.934 C 110.666 308.934 109.933 308.788 109.226 308.481 C 106.52 307.294 105.293 304.134 106.48 301.428 C 107.92 298.161 109.413 294.908 110.946 291.694 C 112.226 289.028 115.413 287.894 118.08 289.174 C 120.746 290.454 121.88 293.641 120.6 296.308 C 119.106 299.428 117.666 302.574 116.266 305.748 C 115.4 307.748 113.44 308.934 111.386 308.934 L 111.386 308.934 Z  M 100.973 335.521 C 100.4 335.521 99.813 335.428 99.226 335.228 C 96.426 334.268 94.946 331.214 95.906 328.428 C 97.48 323.854 99.16 319.281 100.906 314.814 C 101.986 312.054 105.093 310.694 107.84 311.788 C 110.586 312.868 111.946 315.974 110.866 318.721 C 109.173 323.041 107.546 327.481 106.026 331.908 C 105.28 334.121 103.2 335.521 100.973 335.521 L 100.973 335.521 Z  M 89.613 376.774 C 89.253 376.774 88.88 376.734 88.506 376.654 C 85.613 376.054 83.76 373.214 84.36 370.321 C 86.32 360.908 88.72 351.454 91.48 342.214 C 92.32 339.374 95.306 337.774 98.133 338.614 C 100.973 339.454 102.573 342.441 101.733 345.268 C 99.066 354.214 96.746 363.388 94.84 372.508 C 94.32 375.041 92.093 376.774 89.613 376.774 L 89.613 376.774 Z  M 82.306 447.654 C 79.346 447.654 76.96 445.254 76.96 442.307 C 76.96 422.961 78.56 403.547 81.706 384.587 C 82.186 381.668 84.946 379.694 87.866 380.188 C 90.773 380.668 92.746 383.428 92.266 386.348 C 89.213 404.721 87.666 423.547 87.666 442.307 C 87.666 445.254 85.266 447.654 82.306 447.654" fill="rgb(255,198,0)"/><path d=" M 426.666 791.44 C 233.839 791.44 76.96 635.827 76.96 441.161 L 87.666 441.161 C 87.666 627.827 239.746 780.733 426.666 780.733 C 519.905 780.733 606.798 743.947 671.358 676.64 L 679.092 683.907 C 612.492 753.347 522.839 791.44 426.666 791.44 Z " fill="rgb(255,198,0)"/><path d=" M 649.678 668.64 L 700.225 651.493 L 689.812 703.84 L 649.678 668.64 L 649.678 668.64 Z " fill="rgb(255,198,0)"/><path d=" M 766.358 504.481 C 766.065 504.481 765.771 504.467 765.478 504.414 C 762.571 503.934 760.598 501.174 761.078 498.254 C 764.118 479.894 765.665 461.067 765.665 442.294 C 765.665 439.334 768.065 436.947 771.011 436.947 C 773.971 436.947 776.358 439.347 776.358 442.294 C 776.358 461.654 774.771 481.081 771.625 500.014 C 771.198 502.627 768.931 504.481 766.358 504.481 L 766.358 504.481 Z  M 756.731 546.187 C 756.225 546.187 755.705 546.12 755.198 545.96 C 752.358 545.12 750.758 542.134 751.598 539.307 C 754.265 530.36 756.585 521.2 758.491 512.067 C 759.091 509.174 761.945 507.334 764.825 507.921 C 767.718 508.521 769.571 511.361 768.971 514.254 C 766.998 523.667 764.611 533.107 761.851 542.347 C 761.158 544.694 759.025 546.187 756.731 546.187 L 756.731 546.187 Z  M 747.425 573.187 C 746.771 573.187 746.118 573.067 745.478 572.814 C 742.731 571.734 741.371 568.64 742.438 565.88 C 744.158 561.48 745.785 557.04 747.291 552.694 C 748.251 549.894 751.305 548.414 754.091 549.374 C 756.891 550.334 758.371 553.387 757.411 556.174 C 755.865 560.667 754.185 565.24 752.411 569.787 C 751.585 571.894 749.571 573.187 747.425 573.187 L 747.425 573.187 Z  M 738.238 594.48 C 737.465 594.48 736.692 594.32 735.958 593.974 C 733.292 592.707 732.145 589.52 733.398 586.854 C 734.651 584.2 735.865 581.534 737.051 578.854 C 738.251 576.147 741.398 574.92 744.105 576.12 C 746.811 577.32 748.038 580.48 746.838 583.174 C 745.625 585.947 744.358 588.694 743.078 591.427 C 742.171 593.347 740.238 594.48 738.238 594.48" fill="rgb(255,198,0)"/><path d=" M 776.371 441.161 L 765.665 441.161 C 765.665 253.161 613.585 102.722 426.666 102.722 C 333.559 102.722 246.733 139.988 182.2 207.148 L 174.48 199.868 C 241.053 130.588 330.613 91.935 426.666 91.935 C 619.492 91.948 776.371 246.495 776.371 441.161" fill="rgb(255,198,0)"/><path d=" M 203.866 215.735 L 153.306 232.841 L 163.773 180.495 L 203.866 215.735 Z " fill="rgb(255,198,0)"/><path d=" M 225.559 504.921 C 228.613 496.441 235.013 491.094 243.253 488.947 C 253.533 486.281 264.106 484.667 274.653 483.254 C 278.106 482.787 279.079 481.841 279.573 478.601 C 284.159 448.321 295.839 420.894 313.346 395.854 C 313.586 395.521 313.946 395.281 314.746 394.507 C 315.893 401.307 316.893 407.694 318.066 414.041 C 323.013 440.761 329.826 466.881 342.826 491.001 C 351.212 506.561 362.252 519.614 377.132 529.56 C 394.252 541 409.786 554.467 424.186 569.214 C 425.372 570.427 426.492 571.707 428.466 573.854 C 417.492 577.28 407.252 580.654 396.879 583.64 C 390.532 585.467 390.492 585.187 391.106 591.974 C 392.092 602.974 391.959 613.934 389.079 624.667 C 388.239 627.8 387.012 630.92 385.399 633.734 C 381.132 641.214 374.399 644.854 366.012 642.934 C 357.479 640.987 348.786 638.707 340.932 634.947 C 323.706 626.667 317.586 611.64 322.733 593.254 C 323.119 591.907 323.533 590.56 324.013 588.934 C 315.959 587.76 308.133 586.054 300.226 585.654 C 292.079 585.24 288.106 581.454 286.533 573.734 C 285.013 566.36 282.773 559.147 280.973 552.334 C 275.359 553.427 269.839 555 264.239 555.48 C 252.666 556.48 243.906 551.147 237.226 542.04 C 231.746 534.56 228.626 526.027 226.519 517.081 C 226.293 516.147 225.893 515.254 225.573 514.347 C 225.559 511.201 225.559 508.067 225.559 504.921" fill-rule="evenodd" fill="rgb(255,198,0)"/><path d=" M 352.719 246.628 C 353.572 251.868 354.306 256.921 355.239 261.921 C 356.439 268.361 356.786 268.508 363.306 266.521 C 361.466 259.548 359.626 252.561 357.692 245.255 C 356.066 245.708 354.612 246.108 352.719 246.628 Z  M 348.906 268.334 C 347.666 261.468 346.532 255.108 345.332 248.441 C 342.586 249.348 340.226 249.935 338.066 250.935 C 337.146 251.361 336.026 252.628 335.999 253.534 C 335.813 259.334 335.906 265.134 335.906 271.401 C 340.439 270.334 344.519 269.374 348.906 268.334 Z  M 328.519 255.721 C 328.119 255.508 327.706 255.295 327.306 255.081 C 323.959 257.388 318.559 259.121 317.693 262.134 C 315.919 268.388 316.573 275.334 316.199 282.401 C 320.253 279.788 323.533 277.801 326.653 275.588 C 327.519 274.974 328.399 273.708 328.426 272.721 C 328.599 267.068 328.519 261.388 328.519 255.721 L 328.519 255.721 Z  M 363.039 292.881 C 361.679 292.548 360.346 292.094 358.959 291.908 C 357.719 291.734 356.439 291.868 354.879 291.868 C 355.412 294.054 355.906 296.068 356.439 298.228 C 350.519 299.614 344.626 300.988 338.426 302.441 C 337.813 298.828 337.186 295.121 336.559 291.428 L 354.492 291.428 C 353.106 285.961 351.839 280.988 350.452 275.574 C 346.212 276.681 342.452 277.428 338.892 278.721 C 337.799 279.121 336.679 280.961 336.559 282.214 C 336.292 285.281 336.613 288.414 336.679 291.508 C 334.399 291.934 332.092 292.361 329.813 292.774 L 328.852 281.988 C 324.266 286.268 320.613 289.668 316.959 293.081 C 319.679 293.681 321.626 293.321 323.586 293.108 C 325.679 292.881 327.786 292.801 329.893 292.668 C 331.919 301.414 331.066 308.934 321.879 313.534 C 319.919 314.521 318.639 316.881 316.373 319.348 L 316.373 294.828 C 313.359 295.081 310.773 295.294 308.186 295.521 L 308.213 295.521 C 308.626 286.041 309.706 276.534 309.253 267.094 C 308.893 259.495 312.106 255.401 318.199 251.908 C 330.439 244.881 343.599 240.668 357.306 237.788 C 358.226 237.588 359.106 237.175 359.999 236.855 L 364.279 236.855 C 367.826 250.281 371.079 263.801 375.026 277.121 C 376.986 283.721 380.199 289.961 383.026 296.774 C 380.199 296.094 377.666 295.481 374.732 294.774 C 375.012 296.201 375.199 297.094 375.386 298.001 C 365.959 299.788 364.186 299.028 362.906 292.774 C 366.426 293.174 369.959 293.574 373.746 294.001 C 371.746 289.054 369.826 284.494 368.039 279.868 C 365.679 273.774 365.212 273.508 357.866 275.534 C 359.599 281.321 361.319 287.094 363.039 292.881" fill-rule="evenodd" fill="rgb(255,198,0)"/><path d=" M 463.199 611.547 C 482.239 596.587 500.079 580.187 516.412 560.8 C 508.945 553.094 501.665 545.574 495.039 538.747 C 478.919 555.414 463.919 570.934 449.039 586.307 C 453.399 594.094 458.119 602.507 463.199 611.547 L 463.199 611.547 Z  M 521.692 481.201 C 516.265 500.241 508.092 516.92 498.305 531.347 C 505.919 539.52 513.239 547.4 521.092 555.854 C 528.279 545.214 535.279 534.84 542.479 524.147 C 543.385 526.787 544.305 529.467 545.225 532.16 C 545.625 532.294 546.012 532.427 546.412 532.56 C 552.012 520.347 557.599 508.121 563.385 495.481 C 576.559 509.281 583.479 526.04 584.959 545.307 L 586.039 545.067 C 586.585 537.96 587.132 530.854 587.772 522.507 C 591.532 533.32 592.545 543.294 592.412 553.387 C 592.345 558.507 591.638 563.614 591.172 568.72 C 590.932 571.294 589.785 573.267 586.879 572.894 C 583.972 572.507 583.479 570.347 583.799 567.76 C 584.345 563.534 584.772 559.307 584.785 554.987 C 581.932 565.867 579.079 576.76 576.145 587.96 C 569.265 586.027 564.479 582.187 560.372 577.4 C 552.265 567.92 549.025 556.534 547.505 544.454 C 547.079 541.107 546.372 537.8 545.639 533.587 C 538.639 543.467 532.185 552.56 525.559 561.92 C 532.772 572.134 538.945 583.16 541.785 595.694 C 542.825 600.267 543.279 604.96 543.999 609.6 C 544.399 612.227 543.772 614.254 540.759 614.494 C 537.572 614.747 536.679 612.787 536.532 609.934 C 535.719 594.2 529.612 580.454 521.919 569.467 C 512.252 578.307 502.559 587.36 492.652 596.174 C 484.559 603.374 476.279 610.387 467.892 617.254 C 465.692 619.054 465.052 620.6 465.612 623.374 C 467.252 631.44 467.132 639.507 464.666 647.48 C 463.852 650.134 462.546 652.12 459.546 651.16 C 456.799 650.294 456.719 648.094 457.532 645.56 C 460.106 637.6 457.732 619.854 456.732 617.307 C 450.786 600.627 440.199 586.787 428.212 573.427 C 430.532 572.094 432.559 570.947 435.559 569.227 C 430.146 564.467 425.132 560.054 420.719 556.16 C 428.679 539.614 436.146 524.12 443.626 508.587 C 450.586 510.134 477.919 526.214 486.159 533.774 C 471.332 548.667 453.666 559.48 435.119 569.707 C 437.972 573.107 440.612 576.227 443.492 579.654 C 461.559 564.614 477.785 548.16 491.359 528.387 C 477.372 517.627 462.359 508.854 446.372 501.321 C 453.306 483.441 460.119 465.854 466.652 448.987 C 483.599 455.027 500.292 460.974 517.319 467.041 C 513.839 487.467 505.465 506.267 494.705 524.174 C 509.292 508.547 517.519 489.467 524.625 469.347 C 535.825 473.907 545.879 479.934 554.959 487.561 C 555.759 488.227 556.199 490.227 555.825 491.241 C 551.919 501.601 547.825 511.894 543.039 522.16 C 536.972 508.014 532.825 493.307 521.692 481.201" fill-rule="evenodd" fill="rgb(255,198,0)"/><path d=" M 517.492 404.694 C 490.492 399.374 465.906 388.534 443.852 372.094 C 417.679 352.601 398.412 327.481 383.626 297.401 C 385.639 298.028 386.879 298.348 388.066 298.814 C 407.106 306.361 422.732 318.401 434.999 334.748 C 436.599 336.881 438.252 337.774 440.852 338.241 C 449.679 339.801 458.439 341.761 467.639 343.654 C 468.785 339.841 469.919 335.654 471.332 331.548 C 476.199 317.401 483.425 304.668 495.345 295.334 C 500.319 291.441 506.319 288.828 511.825 285.601 C 514.545 284.001 517.185 282.241 519.945 280.721 C 521.265 280.001 523.159 278.854 524.159 279.294 C 528.279 281.134 531.879 278.881 535.719 278.548 C 541.199 278.081 546.812 277.401 552.212 278.054 C 559.412 278.908 563.839 284.081 564.572 291.348 C 564.919 294.868 564.772 298.494 564.359 302.014 C 563.892 305.988 562.212 309.681 565.159 313.721 C 566.172 315.108 564.745 318.521 563.999 320.868 C 563.065 323.774 561.359 326.454 560.545 329.388 C 554.879 349.654 541.665 363.508 523.545 373.174 C 518.545 375.854 513.239 377.961 508.439 380.174 C 511.412 388.348 514.385 396.561 517.372 404.774 L 517.492 404.694" fill-rule="evenodd" fill="rgb(255,198,0)"/><path d=" M 527.505 413.854 C 538.745 423.121 550.052 432.427 561.639 441.974 C 559.985 435.241 558.345 428.267 556.479 421.361 C 556.212 420.374 554.945 419.161 553.945 418.947 C 544.985 417.107 535.972 415.454 527.505 413.854 L 527.505 413.854 Z  M 517.372 404.787 C 528.599 406.694 539.945 408.147 551.052 410.614 C 590.572 419.414 614.452 448.001 615.998 488.481 C 616.358 497.974 615.438 507.521 614.852 517.041 C 614.678 519.747 614.412 523.4 610.252 522.854 C 605.932 522.281 607.159 518.787 607.572 516.081 C 610.065 499.654 609.598 483.374 604.865 467.374 C 599.092 447.907 587.305 433.387 568.892 424.481 C 568.012 424.054 567.079 423.734 565.865 423.254 C 567.199 433.281 568.479 443.014 569.772 452.747 C 569.319 452.934 568.865 453.107 568.412 453.294 C 566.319 450.481 564.225 447.667 562.239 444.987 C 561.319 456.841 560.399 468.574 559.505 480.227 C 547.479 473.294 536.425 466.907 524.932 460.281 C 526.785 441.694 523.559 423.001 517.519 404.694 C 517.492 404.694 517.372 404.787 517.372 404.787" fill-rule="evenodd" fill="rgb(255,198,0)"/><path d=" M 365.172 424.187 C 372.279 434.894 378.732 446.054 386.666 456.041 C 391.599 462.254 392.252 466.774 388.652 473.907 C 381.706 487.641 376.826 502.281 374.252 519.174 C 369.372 514.014 364.732 509.987 361.212 505.134 C 356.106 498.147 351.879 490.507 347.132 483.254 C 344.186 478.747 344.012 473.947 344.866 468.921 C 347.746 452.081 355.772 437.614 365.172 424.187 Z " fill-rule="evenodd" fill="rgb(255,198,0)"/><path d=" M 426.092 419.307 C 437.866 428.107 448.786 436.281 460.199 444.827 C 453.706 461.654 447.012 479.014 440.212 496.641 C 439.106 496.161 438.306 495.961 437.652 495.521 C 425.146 486.907 413.826 476.947 403.746 465.601 C 402.919 464.667 402.186 462.561 402.666 461.681 C 410.386 447.441 418.319 433.294 426.092 419.307" fill-rule="evenodd" fill="rgb(255,198,0)"/><path d=" M 398.252 470.401 C 400.706 473.027 402.639 475.534 404.986 477.547 C 414.599 485.774 424.332 493.854 434.066 501.947 C 435.452 503.094 437.319 503.654 436.119 506.227 C 429.346 520.614 422.706 535.067 415.839 549.867 C 414.319 548.934 413.599 548.587 412.986 548.107 C 403.266 540.427 393.506 532.8 383.932 524.96 C 382.679 523.947 381.546 521.694 381.732 520.187 C 383.972 502.787 390.546 486.787 398.252 470.401 Z " fill-rule="evenodd" fill="rgb(255,198,0)"/><path d=" M 518.599 458.534 C 501.385 454.174 484.959 449.507 469.652 440.507 C 474.052 428.014 478.465 415.467 483.052 402.467 C 486.239 403.547 489.239 404.667 492.305 405.574 C 498.719 407.454 505.199 409.147 511.599 411.094 C 512.905 411.494 514.652 412.481 514.999 413.574 C 519.599 428.214 520.172 443.174 518.599 458.534 Z " fill-rule="evenodd" fill="rgb(255,198,0)"/><path d=" M 397.452 385.694 C 405.586 395.441 413.159 404.507 420.879 413.761 C 412.826 427.747 404.612 442.041 396.119 456.787 C 393.786 453.681 391.239 450.707 389.146 447.427 C 383.346 438.281 377.666 429.067 372.132 419.761 C 371.439 418.587 371.199 416.147 371.932 415.281 C 380.332 405.281 388.959 395.467 397.452 385.694 Z " fill-rule="evenodd" fill="rgb(255,198,0)"/><path d=" M 338.426 462.667 C 331.452 443.187 327.306 424.454 324.119 405.481 C 323.906 404.254 323.839 402.801 324.319 401.707 C 329.039 390.867 335.813 381.534 344.759 373.801 C 349.052 384.801 352.586 395.814 357.612 406.094 C 361.079 413.174 360.879 418.174 356.052 424.614 C 347.852 435.574 342.199 448.067 338.426 462.667" fill-rule="evenodd" fill="rgb(255,198,0)"/><path d=" M 308.213 295.534 C 308.493 303.054 308.786 310.588 309.039 318.108 C 309.213 323.094 309.466 328.081 309.373 333.054 C 309.346 334.134 308.013 336.081 307.159 336.148 C 292.959 337.241 279.133 335.988 267.279 327.081 C 263.399 324.161 260.373 320.134 256.426 316.068 C 259.399 314.494 261.266 313.214 263.333 312.454 C 277.586 307.161 291.879 301.988 306.159 296.748 C 306.906 296.468 307.559 295.948 308.253 295.534 L 308.213 295.534" fill-rule="evenodd" fill="rgb(255,198,0)"/><path d=" M 462.732 437.681 C 451.559 429.161 441.199 421.254 430.479 413.081 C 436.999 403.361 443.079 394.321 448.999 385.494 C 457.586 389.961 465.785 394.174 473.879 398.574 C 474.719 399.027 475.572 400.907 475.292 401.747 C 471.385 413.281 467.292 424.774 462.732 437.681 Z " fill-rule="evenodd" fill="rgb(255,198,0)"/><path d=" M 393.452 379.414 C 384.532 389.187 375.812 398.761 366.919 408.521 C 366.546 408.001 365.932 407.427 365.666 406.721 C 361.146 394.894 356.612 383.094 352.306 371.201 C 351.906 370.081 352.519 367.654 353.412 367.121 C 361.452 362.348 369.666 357.881 378.066 353.174 C 383.519 362.481 388.466 370.908 393.452 379.414" fill-rule="evenodd" fill="rgb(255,198,0)"/><path d=" M 403.132 380.801 C 409.906 374.801 415.972 369.428 422.106 363.988 C 429.212 369.801 436.012 375.374 442.972 381.068 C 437.186 389.614 431.399 398.161 425.119 407.441 C 417.692 398.427 410.559 389.801 403.132 380.801 Z " fill-rule="evenodd" fill="rgb(255,198,0)"/><path d=" M 317.146 337.028 C 317.519 343.361 317.893 349.708 318.253 355.868 C 323.706 350.841 328.799 345.774 334.306 341.188 C 338.839 337.401 343.919 339.401 345.252 345.041 C 346.172 348.921 346.999 352.828 348.119 356.654 C 348.426 357.721 349.679 358.521 350.439 359.374 C 348.319 360.574 345.559 362.121 342.412 363.894 C 341.012 358.534 339.652 353.388 338.292 348.214 C 325.373 353.948 317.133 371.988 321.293 383.481 C 324.173 380.974 327.426 378.241 330.586 375.388 C 333.586 372.668 336.452 369.801 339.572 367.241 C 333.652 374.361 327.733 381.481 321.839 388.587 C 321.693 388.161 321.426 387.414 320.973 386.068 C 318.973 388.508 317.173 390.707 314.426 394.054 C 312.639 374.441 310.986 356.108 309.266 337.174 L 317.293 337.174 L 317.146 337.028" fill-rule="evenodd" fill="rgb(255,198,0)"/><path d=" M 587.332 517.92 C 582.599 510.454 578.852 502.001 572.839 495.747 C 566.412 489.067 564.919 482.827 567.319 474.281 C 568.905 468.627 568.825 462.507 569.599 455.627 C 581.625 475.307 586.825 496.041 587.332 517.92" fill-rule="evenodd" fill="rgb(255,198,0)"/><path d=" M 358.559 305.201 C 361.319 312.828 363.719 319.481 366.106 326.094 C 358.372 329.108 350.866 332.028 342.999 335.094 C 341.826 327.788 340.532 320.534 339.612 313.241 C 339.466 312.108 340.772 309.974 341.839 309.641 C 347.212 307.948 352.732 306.708 358.559 305.201" fill-rule="evenodd" fill="rgb(255,198,0)"/><path d=" M 416.959 358.668 C 411.026 363.881 405.306 368.894 399.079 374.374 C 394.612 366.788 390.346 359.508 385.439 351.161 C 392.599 349.614 399.012 348.201 405.439 346.908 C 405.959 346.801 406.786 347.334 407.212 347.801 C 410.439 351.334 413.626 354.934 416.959 358.668 Z " fill-rule="evenodd" fill="rgb(255,198,0)"/><path d=" M 317.266 337.148 C 317.426 330.294 324.639 319.494 332.199 315.081 C 333.532 322.934 334.839 330.654 336.199 338.694 C 329.546 338.108 323.346 337.574 317.146 337.028 L 317.266 337.148 Z " fill-rule="evenodd" fill="rgb(255,198,0)"/><path d=" M 364.732 349.614 C 358.959 346.561 354.039 343.948 348.412 340.974 C 355.266 338.348 361.906 335.801 368.959 333.108 C 371.132 337.841 373.119 342.174 375.159 346.614 C 368.159 350.028 361.346 353.334 354.546 356.641 C 354.426 356.468 354.306 356.281 354.186 356.108 C 357.252 354.214 360.346 352.321 364.732 349.614 Z " fill-rule="evenodd" fill="rgb(255,198,0)"/><path d=" M 388.266 321.828 C 383.839 322.668 379.839 323.574 375.786 324.068 C 374.839 324.188 373.132 323.148 372.759 322.228 C 370.599 317.001 368.732 311.654 366.759 306.334 C 376.466 303.588 380.812 306.734 388.266 321.828" fill-rule="evenodd" fill="rgb(255,198,0)"/><path d=" M 376.386 331.454 C 381.919 330.614 386.639 329.828 391.386 329.241 C 392.199 329.134 393.426 329.601 393.906 330.241 C 396.212 333.228 398.319 336.374 400.759 339.814 C 394.306 341.388 388.452 342.814 382.266 344.321 C 380.412 340.281 378.599 336.321 376.386 331.454" fill-rule="evenodd" fill="rgb(255,198,0)"/></g></g></g></g></svg>