<svg version="1.1" id="Layer_1" xmlns="http://www.w3.org/2000/svg" x="0" y="0" viewBox="0 0 12 12" xml:space="preserve"><style>.st0{fill:#ffc600}</style><path class="st0" d="M11.9 3c-.1-.1-.2-.2-.3-.2H9.2V4c0 .6-.5 1-1.1 1C7.5 5 7 4.5 7 4V2.9H4.9v1.2c0 .6-.5 1-1.1 1s-1.1-.5-1.1-1V2.9H.4c-.1 0-.2 0-.3.1-.1.1-.1.2-.1.4l.8 7.1c0 .8.6 1.5 1.4 1.5h7.6c.8 0 1.4-.6 1.4-1.5l.8-7.1c0-.2-.1-.3-.1-.4z"/><path class="st0" d="M3.8 4.5c.2 0 .4-.2.4-.4V1.8c0-.6.7-1 1.3-1h1.1c.7 0 1.1.4 1.1 1v2.3c0 .2.2.4.4.4s.4-.2.4-.4V1.8C8.6.8 7.8 0 6.6 0h-1C4.4 0 3.4.8 3.4 1.8v2.3c0 .2.2.4.4.4z"/></svg>