<svg version="1.1" id="Layer_1" xmlns="http://www.w3.org/2000/svg" x="0" y="0" viewBox="0 0 32 32" xml:space="preserve"><style>.st0{fill:#b5b5b5}</style><switch><g><path class="st0" d="M20.9 16c0 2.7-2.2 4.9-4.9 4.9s-5-2.2-5-4.9c0-.4.1-.8.1-1.1h-.9v6.8h11.4v-6.8h-.9c.2.3.2.7.2 1.1z"/><path class="st0" d="M16 18.7c1.5 0 2.7-1.2 2.7-2.7s-1.2-2.7-2.7-2.7-2.7 1.2-2.7 2.7 1.2 2.7 2.7 2.7zm2.6-8.4h3v3h-3z"/><path class="st0" d="M16 0C7.2 0 0 7.2 0 16s7.2 16 16 16 16-7.2 16-16S24.8 0 16 0zm8 21.7c0 1.3-1 2.3-2.3 2.3H10.3C9 24 8 23 8 21.7V10.3C8 9 9 8 10.3 8h11.4C23 8 24 9 24 10.3v11.4z"/></g></switch></svg>