<svg xmlns="http://www.w3.org/2000/svg" style="isolation:isolate" viewBox="0 0 853.3 853.3" width="853.3pt" height="853.3pt"><defs><clipPath id="a"><path d="M0 0h853.3v853.3H0z"/></clipPath></defs><g fill="#FFC600" clip-path="url(#a)"><path d="M111.386 308.934a5.353 5.353 0 01-4.906-7.506 358.57 358.57 0 014.466-9.734c1.28-2.666 4.467-3.8 7.134-2.52 2.666 1.28 3.8 4.467 2.52 7.134a333.166 333.166 0 00-4.334 9.44c-.866 2-2.826 3.186-4.88 3.186zm-10.413 26.587a5.35 5.35 0 01-5.067-7.093 353.531 353.531 0 015-13.614c1.08-2.76 4.187-4.12 6.934-3.026a5.353 5.353 0 013.026 6.933c-1.693 4.32-3.32 8.76-4.84 13.187-.746 2.213-2.826 3.613-5.053 3.613zm-11.36 41.253c-.36 0-.733-.04-1.107-.12-2.893-.6-4.746-3.44-4.146-6.333a342.741 342.741 0 017.12-28.107c.84-2.84 3.826-4.44 6.653-3.6 2.84.84 4.44 3.827 3.6 6.654a337.366 337.366 0 00-6.893 27.24 5.34 5.34 0 01-5.227 4.266zm-7.307 70.88c-2.96 0-5.346-2.4-5.346-5.347 0-19.346 1.6-38.76 4.746-57.72a5.339 5.339 0 016.16-4.399c2.907.48 4.88 3.24 4.4 6.16a342.38 342.38 0 00-4.6 55.959c0 2.947-2.4 5.347-5.36 5.347"/><path d="M426.666 791.44c-192.827 0-349.706-155.613-349.706-350.279h10.706c0 186.666 152.08 339.572 339 339.572 93.239 0 180.132-36.786 244.692-104.093l7.734 7.267c-66.6 69.44-156.253 107.533-252.426 107.533z"/><path d="M649.678 668.64l50.547-17.147-10.413 52.347-40.134-35.2zm116.68-164.159c-.293 0-.587-.014-.88-.067-2.907-.48-4.88-3.24-4.4-6.16a343.588 343.588 0 004.587-55.96 5.346 5.346 0 1110.693 0c0 19.36-1.587 38.787-4.733 57.72-.427 2.613-2.694 4.467-5.267 4.467zm-9.627 41.706a5.092 5.092 0 01-1.533-.227c-2.84-.84-4.44-3.826-3.6-6.653a336.1 336.1 0 006.893-27.24c.6-2.893 3.454-4.733 6.334-4.146 2.893.6 4.746 3.44 4.146 6.333a347.775 347.775 0 01-7.12 28.093 5.342 5.342 0 01-5.12 3.84zm-9.306 27a5.366 5.366 0 01-4.987-7.307c1.72-4.4 3.347-8.84 4.853-13.186a5.35 5.35 0 016.8-3.32 5.35 5.35 0 013.32 6.8 358.791 358.791 0 01-5 13.613 5.352 5.352 0 01-4.986 3.4zm-9.187 21.293c-.773 0-1.546-.16-2.28-.506-2.666-1.267-3.813-4.454-2.56-7.12a359.355 359.355 0 003.653-8 5.341 5.341 0 017.054-2.734c2.706 1.2 3.933 4.36 2.733 7.054a353.529 353.529 0 01-3.76 8.253c-.907 1.92-2.84 3.053-4.84 3.053"/><path d="M776.371 441.161h-10.706c0-188-152.08-338.439-338.999-338.439-93.107 0-179.933 37.266-244.466 104.426l-7.72-7.28c66.573-69.28 156.133-107.933 252.186-107.933 192.826.013 349.705 154.56 349.705 349.226"/><path d="M203.866 215.735l-50.56 17.106 10.467-52.346 40.093 35.24z"/><path d="M225.559 504.921c3.054-8.48 9.454-13.827 17.694-15.974 10.28-2.666 20.853-4.28 31.4-5.693 3.453-.467 4.426-1.413 4.92-4.653 4.586-30.28 16.266-57.707 33.773-82.747.24-.333.6-.573 1.4-1.347 1.147 6.8 2.147 13.187 3.32 19.534 4.947 26.72 11.76 52.84 24.76 76.96 8.386 15.56 19.426 28.613 34.306 38.559 17.12 11.44 32.654 24.907 47.054 39.654 1.186 1.213 2.306 2.493 4.28 4.64-10.974 3.426-21.214 6.8-31.587 9.786-6.347 1.827-6.387 1.547-5.773 8.334.986 11 .853 21.96-2.027 32.693-.84 3.133-2.067 6.253-3.68 9.067-4.267 7.48-11 11.12-19.387 9.2-8.533-1.947-17.226-4.227-25.08-7.987-17.226-8.28-23.346-23.307-18.199-41.693.386-1.347.8-2.694 1.28-4.32-8.054-1.174-15.88-2.88-23.787-3.28-8.147-.414-12.12-4.2-13.693-11.92-1.52-7.374-3.76-14.587-5.56-21.4-5.614 1.093-11.134 2.666-16.734 3.146-11.573 1-20.333-4.333-27.013-13.44-5.48-7.48-8.6-16.013-10.707-24.959-.226-.934-.626-1.827-.946-2.734-.014-3.146-.014-6.28-.014-9.426m127.16-258.293c.853 5.24 1.587 10.293 2.52 15.293 1.2 6.44 1.547 6.587 8.067 4.6-1.84-6.973-3.68-13.96-5.614-21.266-1.626.453-3.08.853-4.973 1.373zm-3.813 21.706c-1.24-6.866-2.374-13.226-3.574-19.893-2.746.907-5.106 1.494-7.266 2.494-.92.426-2.04 1.693-2.067 2.599-.186 5.8-.093 11.6-.093 17.867 4.533-1.067 8.613-2.027 13-3.067zm-20.387-12.613c-.4-.213-.813-.426-1.213-.64-3.347 2.307-8.747 4.04-9.613 7.053-1.774 6.254-1.12 13.2-1.494 20.267 4.054-2.613 7.334-4.6 10.454-6.813.866-.614 1.746-1.88 1.773-2.867.173-5.653.093-11.333.093-17zm34.52 37.16c-1.36-.333-2.693-.787-4.08-.973-1.24-.174-2.52-.04-4.08-.04.533 2.186 1.027 4.2 1.56 6.36-5.92 1.386-11.813 2.76-18.013 4.213l-1.867-11.013h17.933a6347.454 6347.454 0 00-4.04-15.854c-4.24 1.107-8 1.854-11.56 3.147-1.093.4-2.213 2.24-2.333 3.493-.267 3.067.054 6.2.12 9.294-2.28.426-4.587.853-6.866 1.266l-.961-10.786c-4.586 4.28-8.239 7.68-11.893 11.093 2.72.6 4.667.24 6.627.027 2.093-.227 4.2-.307 6.307-.44 2.026 8.746 1.173 16.266-8.014 20.866-1.96.987-3.24 3.347-5.506 5.814v-24.52c-3.014.253-5.6.466-8.187.693h.027c.413-9.48 1.493-18.987 1.04-28.427-.36-7.599 2.853-11.693 8.946-15.186 12.24-7.027 25.4-11.24 39.107-14.12.92-.2 1.8-.613 2.693-.933h4.28c3.547 13.426 6.8 26.946 10.747 40.266 1.96 6.6 5.173 12.84 8 19.653-2.827-.68-5.36-1.293-8.294-2 .28 1.427.467 2.32.654 3.227-9.427 1.787-11.2 1.027-12.48-5.227 3.52.4 7.053.8 10.84 1.227-2-4.947-3.92-9.507-5.707-14.133-2.36-6.094-2.827-6.36-10.173-4.334a8767.64 8767.64 0 015.173 17.347" fill-rule="evenodd"/><path d="M463.199 611.547c19.04-14.96 36.88-31.36 53.213-50.747-7.467-7.706-14.747-15.226-21.373-22.053-16.12 16.667-31.12 32.187-46 47.56 4.36 7.787 9.08 16.2 14.16 25.24zm58.493-130.346c-5.427 19.04-13.6 35.719-23.387 50.146a22877.65 22877.65 0 0122.787 24.507 25852.35 25852.35 0 0021.387-31.707c.906 2.64 1.826 5.32 2.746 8.013.4.134.787.267 1.187.4 5.6-12.213 11.187-24.439 16.973-37.079 13.174 13.8 20.094 30.559 21.574 49.826l1.08-.24c.546-7.107 1.093-14.213 1.733-22.56 3.76 10.813 4.773 20.787 4.64 30.88-.067 5.12-.774 10.227-1.24 15.333-.24 2.574-1.387 4.547-4.293 4.174-2.907-.387-3.4-2.547-3.08-5.134.546-4.226.973-8.453.986-12.773-2.853 10.88-5.706 21.773-8.64 32.973-6.88-1.933-11.666-5.773-15.773-10.56-8.107-9.48-11.347-20.866-12.867-32.946-.426-3.347-1.133-6.654-1.866-10.867-7 9.88-13.454 18.973-20.08 28.333 7.213 10.214 13.386 21.24 16.226 33.774 1.04 4.573 1.494 9.266 2.214 13.906.4 2.627-.227 4.654-3.24 4.894-3.187.253-4.08-1.707-4.227-4.56-.813-15.734-6.92-29.48-14.613-40.467-9.667 8.84-19.36 17.893-29.267 26.707-8.093 7.2-16.373 14.213-24.76 21.08-2.2 1.8-2.84 3.346-2.28 6.12 1.64 8.066 1.52 16.133-.946 24.106-.814 2.654-2.12 4.64-5.12 3.68-2.747-.866-2.827-3.066-2.014-5.6 2.574-7.96.2-25.706-.8-28.253-5.946-16.68-16.533-30.52-28.52-43.88 2.32-1.333 4.347-2.48 7.347-4.2-5.413-4.76-10.427-9.173-14.84-13.067 7.96-16.546 15.427-32.04 22.907-47.573 6.96 1.547 34.293 17.627 42.533 25.187-14.827 14.893-32.493 25.706-51.04 35.933 2.853 3.4 5.493 6.52 8.373 9.947 18.067-15.04 34.293-31.494 47.867-51.267-13.987-10.76-29-19.533-44.987-27.066 6.934-17.88 13.747-35.467 20.28-52.334 16.947 6.04 33.64 11.987 50.667 18.054-3.48 20.426-11.854 39.226-22.614 57.133 14.587-15.627 22.814-34.707 29.92-54.827 11.2 4.56 21.254 10.587 30.334 18.214.8.666 1.24 2.666.866 3.68-3.906 10.36-8 20.653-12.786 30.919-6.067-14.146-10.214-28.853-21.347-40.959m-4.2-76.507c-27-5.32-51.586-16.16-73.64-32.6-26.173-19.493-45.44-44.613-60.226-74.693 2.013.627 3.253.947 4.44 1.413 19.04 7.547 34.666 19.587 46.933 35.934 1.6 2.133 3.253 3.026 5.853 3.493 8.827 1.56 17.587 3.52 26.787 5.413 1.146-3.813 2.28-8 3.693-12.106 4.867-14.147 12.093-26.88 24.013-36.214 4.974-3.893 10.974-6.506 16.48-9.733 2.72-1.6 5.36-3.36 8.12-4.88 1.32-.72 3.214-1.867 4.214-1.427 4.12 1.84 7.72-.413 11.56-.746 5.48-.467 11.093-1.147 16.493-.494 7.2.854 11.627 6.027 12.36 13.294.347 3.52.2 7.146-.213 10.666-.467 3.974-2.147 7.667.8 11.707 1.013 1.387-.414 4.8-1.16 7.147-.934 2.906-2.64 5.586-3.454 8.52-5.666 20.266-18.88 34.12-37 43.786-5 2.68-10.306 4.787-15.106 7 2.973 8.174 5.946 16.387 8.933 24.6l.12-.08m10.013 9.16c11.24 9.267 22.547 18.573 34.134 28.12-1.654-6.733-3.294-13.707-5.16-20.613-.267-.987-1.534-2.2-2.534-2.414-8.96-1.84-17.973-3.493-26.44-5.093zm-10.133-9.067c11.227 1.907 22.573 3.36 33.68 5.827 39.52 8.8 63.4 37.387 64.946 77.867.36 9.493-.56 19.04-1.146 28.56-.174 2.706-.44 6.359-4.6 5.813-4.32-.573-3.093-4.067-2.68-6.773 2.493-16.427 2.026-32.707-2.707-48.707-5.773-19.467-17.56-33.987-35.973-42.893-.88-.427-1.813-.747-3.027-1.227 1.334 10.027 2.614 19.76 3.907 29.493-.453.187-.907.36-1.36.547-2.093-2.813-4.187-5.627-6.173-8.307-.92 11.854-1.84 23.587-2.734 35.24-12.026-6.933-23.08-13.32-34.573-19.946 1.853-18.587-1.373-37.28-7.413-55.587-.027 0-.147.093-.147.093m-152.2 19.4c7.107 10.707 13.56 21.867 21.494 31.854 4.933 6.213 5.586 10.733 1.986 17.866-6.946 13.734-11.826 28.374-14.4 45.267-4.88-5.16-9.52-9.187-13.04-14.04-5.106-6.987-9.333-14.627-14.08-21.88-2.946-4.507-3.12-9.307-2.266-14.333 2.88-16.84 10.906-31.307 20.306-44.734zm60.92-4.88a46882.19 46882.19 0 0134.107 25.52c-6.493 16.827-13.187 34.187-19.987 51.814-1.106-.48-1.906-.68-2.56-1.12-12.506-8.614-23.826-18.574-33.906-29.92-.827-.934-1.56-3.04-1.08-3.92 7.72-14.24 15.653-28.387 23.426-42.374m-27.84 51.094c2.454 2.626 4.387 5.133 6.734 7.146 9.613 8.227 19.346 16.307 29.08 24.4 1.386 1.147 3.253 1.707 2.053 4.28-6.773 14.387-13.413 28.84-20.28 43.64-1.52-.933-2.24-1.28-2.853-1.76-9.72-7.68-19.48-15.307-29.054-23.147-1.253-1.013-2.386-3.266-2.2-4.773 2.24-17.4 8.814-33.4 16.52-49.786zm120.347-11.867c-17.214-4.36-33.64-9.027-48.947-18.027 4.4-12.493 8.813-25.04 13.4-38.04 3.187 1.08 6.187 2.2 9.253 3.107 6.414 1.88 12.894 3.573 19.294 5.52 1.306.4 3.053 1.387 3.4 2.48 4.6 14.64 5.173 29.6 3.6 44.96zm-121.147-72.84c8.134 9.747 15.707 18.813 23.427 28.067-8.053 13.986-16.267 28.28-24.76 43.026-2.333-3.106-4.88-6.08-6.973-9.36-5.8-9.146-11.48-18.36-17.014-27.666-.693-1.174-.933-3.614-.2-4.48 8.4-10 17.027-19.814 25.52-29.587zm-59.026 76.973c-6.974-19.48-11.12-38.213-14.307-57.186-.213-1.227-.28-2.68.2-3.774 4.72-10.84 11.494-20.173 20.44-27.906 4.293 11 7.827 22.013 12.853 32.293 3.467 7.08 3.267 12.08-1.56 18.52-8.2 10.96-13.853 23.453-17.626 38.053m-30.213-167.133c.28 7.52.573 15.054.826 22.574.174 4.986.427 9.973.334 14.946-.027 1.08-1.36 3.027-2.214 3.094-14.2 1.093-28.026-.16-39.88-9.067-3.88-2.92-6.906-6.947-10.853-11.013 2.973-1.574 4.84-2.854 6.907-3.614 14.253-5.293 28.546-10.466 42.826-15.706.747-.28 1.4-.8 2.094-1.214h-.04m154.519 142.147c-11.173-8.52-21.533-16.427-32.253-24.6 6.52-9.72 12.6-18.76 18.52-27.587 8.587 4.467 16.786 8.68 24.88 13.08.84.453 1.693 2.333 1.413 3.173-3.907 11.534-8 23.027-12.56 35.934zm-69.28-58.267c-8.92 9.773-17.64 19.347-26.533 29.107-.373-.52-.987-1.094-1.253-1.8-4.52-11.827-9.054-23.627-13.36-35.52-.4-1.12.213-3.547 1.106-4.08 8.04-4.773 16.254-9.24 24.654-13.947 5.453 9.307 10.4 17.734 15.386 26.24m9.68 1.387c6.774-6 12.84-11.373 18.974-16.813 7.106 5.813 13.906 11.386 20.866 17.08-5.786 8.546-11.573 17.093-17.853 26.373-7.427-9.014-14.56-17.64-21.987-26.64zm-85.986-43.773c.373 6.333.747 12.68 1.107 18.84 5.453-5.027 10.546-10.094 16.053-14.68 4.533-3.787 9.613-1.787 10.946 3.853.92 3.88 1.747 7.787 2.867 11.613.307 1.067 1.56 1.867 2.32 2.72-2.12 1.2-4.88 2.747-8.027 4.52-1.4-5.36-2.76-10.506-4.12-15.68-12.919 5.734-21.159 23.774-16.999 35.267 2.88-2.507 6.133-5.24 9.293-8.093 3-2.72 5.866-5.587 8.986-8.147-5.92 7.12-11.839 14.24-17.733 21.346-.146-.426-.413-1.173-.866-2.519-2 2.44-3.8 4.639-6.547 7.986-1.787-19.613-3.44-37.946-5.16-56.88h8.027l-.147-.146" fill-rule="evenodd"/><path d="M587.332 517.92c-4.733-7.466-8.48-15.919-14.493-22.173-6.427-6.68-7.92-12.92-5.52-21.466 1.586-5.654 1.506-11.774 2.28-18.654 12.026 19.68 17.226 40.414 17.733 62.293M358.559 305.201c2.76 7.627 5.16 14.28 7.547 20.893-7.734 3.014-15.24 5.934-23.107 9-1.173-7.306-2.467-14.56-3.387-21.853-.146-1.133 1.16-3.267 2.227-3.6 5.373-1.693 10.893-2.933 16.72-4.44m58.4 53.467c-5.933 5.213-11.653 10.226-17.88 15.706-4.467-7.586-8.733-14.866-13.64-23.213 7.16-1.547 13.573-2.96 20-4.253.52-.107 1.347.426 1.773.893 3.227 3.533 6.414 7.133 9.747 10.867zm-99.693-21.52c.16-6.854 7.373-17.654 14.933-22.067 1.333 7.853 2.64 15.573 4 23.613-6.653-.586-12.853-1.12-19.053-1.666l.12.12zm47.466 12.466c-5.773-3.053-10.693-5.666-16.32-8.64 6.854-2.626 13.494-5.173 20.547-7.866 2.173 4.733 4.16 9.066 6.2 13.506-7 3.414-13.813 6.72-20.613 10.027-.12-.173-.24-.36-.36-.533 3.066-1.894 6.16-3.787 10.546-6.494zm23.534-27.786c-4.427.84-8.427 1.746-12.48 2.24-.947.12-2.654-.92-3.027-1.84-2.16-5.227-4.027-10.574-6-15.894 9.707-2.746 14.053.4 21.507 15.494m-11.88 9.626c5.533-.84 10.253-1.626 15-2.213.813-.107 2.04.36 2.52 1 2.306 2.987 4.413 6.133 6.853 9.573-6.453 1.574-12.307 3-18.493 4.507-1.854-4.04-3.667-8-5.88-12.867" fill-rule="evenodd"/></g></svg>